<svg width="30" height="31" viewBox="0 0 30 31" fill="none" xmlns="http://www.w3.org/2000/svg">
<path d="M19.3626 9.77083L19.3626 21.3096C19.3626 23.589 17.694 25.6175 15.4255 25.8357C14.8197 25.895 14.2082 25.8269 13.6303 25.6358C13.0524 25.4447 12.5209 25.1347 12.07 24.7259C11.6191 24.3171 11.2587 23.8184 11.012 23.262C10.7653 22.7056 10.6378 22.1037 10.6376 21.495L10.6376 8.01493C10.6376 6.58622 11.6628 5.28838 13.0806 5.1466C13.4609 5.10684 13.8452 5.14749 14.2087 5.2659C14.5722 5.38431 14.9067 5.57784 15.1906 5.83392C15.4744 6.09001 15.7013 6.40293 15.8563 6.75236C16.0114 7.1018 16.0913 7.47994 16.0907 7.86224L16.0907 19.3137C16.0907 19.9136 15.6 20.4044 15.0001 20.4044C14.4003 20.4044 13.9095 19.9136 13.9095 19.3137L13.9095 9.77083C13.9095 9.32367 13.5387 8.95286 13.0915 8.95286C12.6444 8.95286 12.2736 9.32367 12.2736 9.77083L12.2736 19.1611C12.2736 20.5898 13.2988 21.8876 14.7166 22.0294C15.0968 22.0691 15.4811 22.0285 15.8446 21.9101C16.2081 21.7917 16.5427 21.5981 16.8265 21.3421C17.1104 21.086 17.3372 20.7731 17.4923 20.4236C17.6474 20.0742 17.7272 19.696 17.7267 19.3137L17.7267 8.04765C17.7267 5.76825 16.058 3.7397 13.7895 3.52158C13.1835 3.46103 12.5716 3.52826 11.9931 3.71893C11.4147 3.9096 10.8828 4.21947 10.4316 4.62853C9.98036 5.03759 9.61998 5.53675 9.37369 6.09375C9.1274 6.65075 9.00068 7.25322 9.00171 7.86224L9.00171 21.2441C9.00172 24.3742 11.292 27.1771 14.4112 27.4716C15.245 27.553 16.0865 27.459 16.8818 27.1957C17.6771 26.9324 18.4085 26.5055 19.0289 25.9426C19.6493 25.3797 20.1451 24.6932 20.4843 23.9272C20.8235 23.1612 20.9987 22.3327 20.9985 21.495L20.9985 9.77083C20.9985 9.32367 20.6277 8.95286 20.1806 8.95286C19.7334 8.95286 19.3626 9.32367 19.3626 9.77083Z" fill="#005EF5"/>
</svg>
