<svg width="24" height="24" viewBox="0 0 24 24" fill="none" xmlns="http://www.w3.org/2000/svg">
<mask id="path-1-inside-1_1048_1949" fill="white">
<path d="M0.913445 16.5922C0.310389 15.1363 0 13.5759 0 12C0 10.4241 0.310389 8.86371 0.913445 7.4078C1.5165 5.95189 2.40042 4.62902 3.51472 3.51472C4.62902 2.40042 5.95189 1.5165 7.4078 0.913446C8.86371 0.310389 10.4241 0 12 0C13.5759 0 15.1363 0.310389 16.5922 0.913446C18.0481 1.5165 19.371 2.40042 20.4853 3.51472C21.5996 4.62902 22.4835 5.95189 23.0866 7.4078C23.6896 8.86371 24 10.4241 24 12C24 13.5759 23.6896 15.1363 23.0866 16.5922C22.4835 18.0481 21.5996 19.371 20.4853 20.4853C19.371 21.5996 18.0481 22.4835 16.5922 23.0866C15.1363 23.6896 13.5759 24 12 24C10.4241 24 8.86371 23.6896 7.4078 23.0866C5.95189 22.4835 4.62902 21.5996 3.51472 20.4853C2.40042 19.371 1.5165 18.0481 0.913445 16.5922Z"/>
<path d="M12 6.24003V12.48ZM12 17.3334V17.3467Z"/>
</mask>
<path d="M0.913445 16.5922L-0.472374 17.1662L-0.472374 17.1662L0.913445 16.5922ZM3.51472 20.4853L2.45406 21.5459L2.45406 21.5459L3.51472 20.4853ZM7.4078 23.0866L6.83377 24.4724L6.83377 24.4724L7.4078 23.0866ZM16.5922 23.0866L17.1662 24.4724L17.1662 24.4724L16.5922 23.0866ZM23.0866 16.5922L24.4724 17.1662L24.4724 17.1662L23.0866 16.5922ZM23.0866 7.4078L24.4724 6.83377L24.4724 6.83377L23.0866 7.4078ZM20.4853 3.51472L21.5459 2.45406L21.5459 2.45406L20.4853 3.51472ZM16.5922 0.913446L17.1662 -0.472373L17.1662 -0.472374L16.5922 0.913446ZM7.4078 0.913446L6.83377 -0.472374L6.83377 -0.472374L7.4078 0.913446ZM3.51472 3.51472L2.45406 2.45406L2.45406 2.45406L3.51472 3.51472ZM0.913445 7.4078L-0.472374 6.83377L-0.472374 6.83377L0.913445 7.4078ZM13.5 6.24003C13.5 5.41161 12.8284 4.74003 12 4.74003C11.1716 4.74003 10.5 5.41161 10.5 6.24003H13.5ZM10.5 12.48C10.5 13.3085 11.1716 13.98 12 13.98C12.8284 13.98 13.5 13.3085 13.5 12.48H10.5ZM13.5 17.3334C13.5 16.5049 12.8284 15.8334 12 15.8334C11.1716 15.8334 10.5 16.5049 10.5 17.3334H13.5ZM10.5 17.3467C10.5 18.1751 11.1716 18.8467 12 18.8467C12.8284 18.8467 13.5 18.1751 13.5 17.3467H10.5ZM-1.5 12C-1.5 13.7728 -1.15081 15.5283 -0.472374 17.1662L2.29926 16.0182C1.77159 14.7443 1.5 13.3789 1.5 12H-1.5ZM-0.472374 17.1662C0.206065 18.8041 1.20047 20.2923 2.45406 21.5459L4.57538 19.4246C3.60036 18.4496 2.82694 17.2921 2.29926 16.0182L-0.472374 17.1662ZM2.45406 21.5459C3.70765 22.7995 5.19588 23.7939 6.83377 24.4724L7.98182 21.7007C6.70791 21.1731 5.55039 20.3996 4.57538 19.4246L2.45406 21.5459ZM6.83377 24.4724C8.47167 25.1508 10.2272 25.5 12 25.5V22.5C10.6211 22.5 9.25574 22.2284 7.98182 21.7007L6.83377 24.4724ZM12 25.5C13.7728 25.5 15.5283 25.1508 17.1662 24.4724L16.0182 21.7007C14.7443 22.2284 13.3789 22.5 12 22.5V25.5ZM17.1662 24.4724C18.8041 23.7939 20.2923 22.7995 21.5459 21.5459L19.4246 19.4246C18.4496 20.3996 17.2921 21.1731 16.0182 21.7007L17.1662 24.4724ZM21.5459 21.5459C22.7995 20.2923 23.7939 18.8041 24.4724 17.1662L21.7007 16.0182C21.1731 17.2921 20.3996 18.4496 19.4246 19.4246L21.5459 21.5459ZM24.4724 17.1662C25.1508 15.5283 25.5 13.7728 25.5 12H22.5C22.5 13.3789 22.2284 14.7443 21.7007 16.0182L24.4724 17.1662ZM25.5 12C25.5 10.2272 25.1508 8.47167 24.4724 6.83377L21.7007 7.98182C22.2284 9.25574 22.5 10.6211 22.5 12H25.5ZM24.4724 6.83377C23.7939 5.19588 22.7995 3.70765 21.5459 2.45406L19.4246 4.57538C20.3996 5.55039 21.1731 6.70791 21.7007 7.98182L24.4724 6.83377ZM21.5459 2.45406C20.2923 1.20047 18.8041 0.206065 17.1662 -0.472373L16.0182 2.29926C17.2921 2.82694 18.4496 3.60036 19.4246 4.57538L21.5459 2.45406ZM17.1662 -0.472374C15.5283 -1.15081 13.7728 -1.5 12 -1.5V1.5C13.3789 1.5 14.7443 1.77159 16.0182 2.29927L17.1662 -0.472374ZM12 -1.5C10.2272 -1.5 8.47167 -1.15081 6.83377 -0.472374L7.98182 2.29927C9.25574 1.77159 10.6211 1.5 12 1.5V-1.5ZM6.83377 -0.472374C5.19588 0.206065 3.70765 1.20047 2.45406 2.45406L4.57538 4.57538C5.55039 3.60036 6.7079 2.82694 7.98182 2.29927L6.83377 -0.472374ZM2.45406 2.45406C1.20047 3.70765 0.206065 5.19588 -0.472374 6.83377L2.29926 7.98182C2.82694 6.70791 3.60036 5.55039 4.57538 4.57538L2.45406 2.45406ZM-0.472374 6.83377C-1.15081 8.47167 -1.5 10.2272 -1.5 12H1.5C1.5 10.6211 1.77159 9.25574 2.29926 7.98182L-0.472374 6.83377ZM10.5 6.24003V12.48H13.5V6.24003H10.5ZM10.5 17.3334V17.3467H13.5V17.3334H10.5Z" fill="#B60202" mask="url(#path-1-inside-1_1048_1949)"/>
<path d="M1.83732 16.2095C1.28452 14.8749 1 13.4445 1 12C1 10.5555 1.28452 9.12506 1.83732 7.79048C2.39013 6.4559 3.20038 5.24327 4.22182 4.22183C5.24327 3.20038 6.4559 2.39013 7.79048 1.83733C9.12506 1.28452 10.5555 1 12 1C13.4445 1 14.8749 1.28452 16.2095 1.83733C17.5441 2.39013 18.7567 3.20038 19.7782 4.22183C20.7996 5.24327 21.6099 6.4559 22.1627 7.79048C22.7155 9.12506 23 10.5555 23 12C23 13.4445 22.7155 14.8749 22.1627 16.2095C21.6099 17.5441 20.7996 18.7567 19.7782 19.7782C18.7567 20.7996 17.5441 21.6099 16.2095 22.1627C14.8749 22.7155 13.4445 23 12 23C10.5555 23 9.12506 22.7155 7.79048 22.1627C6.4559 21.6099 5.24327 20.7996 4.22183 19.7782C3.20038 18.7567 2.39013 17.5441 1.83732 16.2095Z" stroke="#B60202" stroke-width="2" stroke-linecap="round" stroke-linejoin="round"/>
</svg>
