<svg width="30" height="31" viewBox="0 0 30 31" fill="none" xmlns="http://www.w3.org/2000/svg">
<path d="M24.1383 11.7296H5.86184C5.63462 11.7296 5.41672 11.6393 5.25605 11.4786C5.09539 11.318 5.00513 11.1001 5.00513 10.8729C5.00513 10.6456 5.09539 10.4277 5.25605 10.2671C5.41672 10.1064 5.63462 10.0161 5.86184 10.0161H24.1383C24.3656 10.0161 24.5835 10.1064 24.7441 10.2671C24.9048 10.4277 24.9951 10.6456 24.9951 10.8729C24.9951 11.1001 24.9048 11.318 24.7441 11.4786C24.5835 11.6393 24.3656 11.7296 24.1383 11.7296Z" fill="#1D2C42"/>
<path d="M20.0719 25.4936H9.92839C9.56639 25.5184 9.20308 25.471 8.85952 25.3543C8.51596 25.2376 8.19898 25.0539 7.92697 24.8137C7.65496 24.5736 7.43333 24.2818 7.27491 23.9554C7.1165 23.629 7.02447 23.2743 7.00415 22.9121V10.9295C7.00415 10.7023 7.09441 10.4844 7.25508 10.3237C7.41574 10.1631 7.63365 10.0728 7.86086 10.0728C8.08808 10.0728 8.30598 10.1631 8.46665 10.3237C8.62731 10.4844 8.71757 10.7023 8.71757 10.9295V22.9121C8.71757 23.3804 9.25445 23.7802 9.85986 23.7802H20.0033C20.643 23.7802 21.1456 23.3804 21.1456 22.9121V10.9295C21.1456 10.6841 21.2431 10.4488 21.4166 10.2753C21.5901 10.1017 21.8255 10.0043 22.0708 10.0043C22.3162 10.0043 22.5516 10.1017 22.7251 10.2753C22.8986 10.4488 22.9961 10.6841 22.9961 10.9295V22.9121C22.9758 23.2743 22.8837 23.629 22.7253 23.9554C22.5669 24.2818 22.3453 24.5736 22.0733 24.8137C21.8013 25.0539 21.4843 25.2376 21.1407 25.3543C20.7972 25.471 20.4339 25.5184 20.0719 25.4936ZM20.2089 10.6439C20.096 10.6455 19.9839 10.6244 19.8793 10.5819C19.7746 10.5394 19.6796 10.4763 19.5997 10.3964C19.5199 10.3166 19.4568 10.2215 19.4143 10.1169C19.3718 10.0123 19.3507 9.90017 19.3522 9.78723V8.08524C19.3522 7.6169 18.8039 7.2171 18.2099 7.2171H11.8246C11.1963 7.2171 10.6823 7.6169 10.6823 8.08524V9.78723C10.6823 10.0144 10.592 10.2324 10.4314 10.393C10.2707 10.5537 10.0528 10.6439 9.82559 10.6439C9.59837 10.6439 9.38047 10.5537 9.2198 10.393C9.05914 10.2324 8.96888 10.0144 8.96888 9.78723V8.08524C9.0131 7.36709 9.33673 6.69481 9.87047 6.21231C10.4042 5.72981 11.1056 5.47545 11.8246 5.50368H18.1757C18.9004 5.4662 19.6106 5.71639 20.1518 6.19984C20.693 6.68329 21.0214 7.36089 21.0656 8.08524V9.78723C21.0672 9.9007 21.0461 10.0133 21.0037 10.1186C20.9614 10.2239 20.8985 10.3197 20.8188 10.4004C20.7391 10.4812 20.6441 10.5453 20.5394 10.5891C20.4347 10.6328 20.3224 10.6554 20.2089 10.6554V10.6439Z" fill="#1D2C42"/>
<path d="M12.9666 21.2105C12.7403 21.2076 12.5241 21.1164 12.3641 20.9563C12.204 20.7963 12.1128 20.5801 12.1099 20.3538V15.1793C12.1099 14.9521 12.2001 14.7342 12.3608 14.5735C12.5215 14.4128 12.7394 14.3226 12.9666 14.3226C13.1938 14.3226 13.4117 14.4128 13.5724 14.5735C13.733 14.7342 13.8233 14.9521 13.8233 15.1793V20.3424C13.8248 20.4559 13.8038 20.5685 13.7614 20.6738C13.719 20.779 13.6561 20.8748 13.5764 20.9556C13.4967 21.0363 13.4018 21.1005 13.2971 21.1442C13.1924 21.188 13.08 21.2105 12.9666 21.2105ZM17.0331 21.2105C16.8059 21.2105 16.588 21.1203 16.4273 20.9596C16.2666 20.7989 16.1764 20.581 16.1764 20.3538V15.1793C16.1764 14.9521 16.2666 14.7342 16.4273 14.5735C16.588 14.4128 16.8059 14.3226 17.0331 14.3226C17.2603 14.3226 17.4782 14.4128 17.6389 14.5735C17.7995 14.7342 17.8898 14.9521 17.8898 15.1793V20.3424C17.8898 20.5707 17.7999 20.7898 17.6396 20.9523C17.4792 21.1147 17.2614 21.2075 17.0331 21.2105Z" fill="#1D2C42"/>
</svg>
