<svg width="40" height="40" viewBox="0 0 40 40" fill="none" xmlns="http://www.w3.org/2000/svg">
<path d="M9.73159 16.8925C6.06242 17.765 3.33325 21.0642 3.33325 25C3.33325 29.6025 7.06409 33.3333 11.6666 33.3333C12.4558 33.3333 13.2199 33.2233 13.9441 33.0183M30.0458 16.8925C33.7149 17.765 36.4433 21.0642 36.4433 25C36.4433 29.6025 32.7124 33.3333 28.1099 33.3333C27.3208 33.3333 26.5566 33.2233 25.8333 33.0183M29.9999 16.6667C29.9999 11.1442 25.5224 6.66666 19.9999 6.66666C14.4774 6.66666 9.99992 11.1442 9.99992 16.6667M14.2208 23.2342L19.9999 17.4367L25.9433 23.3333M19.9999 31.6667V20.385" stroke="#1D2C42" stroke-width="2" stroke-linecap="round" stroke-linejoin="round"/>
</svg>
